<svg width="1004" height="630" viewBox="0 0 1004 630" fill="none" xmlns="http://www.w3.org/2000/svg">
<circle cx="688" cy="237" r="1" fill="#C4C4C4"/>
<circle cx="808" cy="314" r="1" fill="#C4C4C4"/>
<circle cx="998" cy="148" r="1" fill="#C4C4C4"/>
<circle cx="850" cy="429" r="1" fill="#C4C4C4"/>
<circle cx="969" cy="564" r="1" fill="#C4C4C4"/>
<circle cx="879" cy="487" r="1" fill="#C4C4C4"/>
<circle cx="525" cy="393" r="1" fill="#C4C4C4"/>
<circle cx="671" cy="398" r="1" fill="#C4C4C4"/>
<circle cx="661" cy="526" r="1" fill="#C4C4C4"/>
<circle cx="813" cy="562" r="1" fill="#C4C4C4"/>
<circle cx="380" cy="458" r="1" fill="#C4C4C4"/>
<circle cx="309" cy="389" r="1" fill="#C4C4C4"/>
<circle cx="412" cy="391" r="1" fill="#C4C4C4"/>
<circle cx="495" cy="590" r="1" fill="#C4C4C4"/>
<circle cx="228" cy="512" r="1" fill="#C4C4C4"/>
<circle cx="996" cy="393" r="1" fill="#C4C4C4"/>
<circle cx="1003" cy="514" r="1" fill="#C4C4C4"/>
<circle cx="119" cy="585" r="1" fill="#C4C4C4"/>
<circle cx="42" cy="488" r="1" fill="#C4C4C4"/>
<circle cx="190" cy="459" r="1" fill="#C4C4C4"/>
<circle cx="314" cy="629" r="1" fill="#C4C4C4"/>
<circle cx="195" cy="587" r="1" fill="#C4C4C4"/>
<circle cx="83" cy="342" r="1" fill="#C4C4C4"/>
<circle cx="6" cy="134" r="1" fill="#C4C4C4"/>
<circle cx="67" cy="269" r="1" fill="#C4C4C4"/>
<circle cx="1" cy="330" r="1" fill="#C4C4C4"/>
<circle cx="70" cy="398" r="1" fill="#C4C4C4"/>
<circle cx="13" cy="612" r="1" fill="#C4C4C4"/>
<circle cx="8" cy="32" r="1" fill="#C4C4C4"/>
<circle cx="85" cy="206" r="1" fill="#C4C4C4"/>
<circle cx="78" cy="32" r="1" fill="#C4C4C4"/>
<circle cx="319" cy="101" r="1" fill="#C4C4C4"/>
<circle cx="262" cy="32" r="1" fill="#C4C4C4"/>
<circle cx="500" cy="37" r="1" fill="#C4C4C4"/>
<circle cx="581" cy="106" r="1" fill="#C4C4C4"/>
<circle cx="666" cy="1" r="1" fill="#C4C4C4"/>
<circle cx="874" cy="6" r="1" fill="#C4C4C4"/>
<circle cx="803" cy="162" r="1" fill="#C4C4C4"/>
<circle cx="918" cy="258" r="1" fill="#C4C4C4"/>
<circle cx="530" cy="201" r="1" fill="#C4C4C4"/>
<circle cx="352" cy="272" r="1" fill="#C4C4C4"/>
<circle cx="233" cy="173" r="1" fill="#C4C4C4"/>
<circle cx="223" cy="263" r="1" fill="#C4C4C4"/>
<circle cx="165" cy="341" r="1" fill="#C4C4C4"/>
<circle cx="145" cy="129" r="1" fill="#C4C4C4"/>
<circle cx="767" cy="69" r="1" fill="#C4C4C4"/>
<circle cx="995" cy="42" r="1" fill="#C4C4C4"/>
</svg>
